<svg width="18" height="18" viewBox="0 0 18 18" fill="none" xmlns="http://www.w3.org/2000/svg">
<g clip-path="url(#clip0_248_643)">
<path d="M9.49967 0.583252C8.46004 0.583252 7.43059 0.788023 6.4701 1.18587C5.5096 1.58372 4.63688 2.16686 3.90175 2.90199C2.41708 4.38665 1.58301 6.40029 1.58301 8.49992C1.58301 10.5995 2.41708 12.6132 3.90175 14.0978C4.63688 14.833 5.5096 15.4161 6.4701 15.814C7.43059 16.2118 8.46004 16.4166 9.49967 16.4166C11.5993 16.4166 13.6129 15.5825 15.0976 14.0978C16.5823 12.6132 17.4163 10.5995 17.4163 8.49992C17.4163 7.46029 17.2116 6.43084 16.8137 5.47034C16.4159 4.50985 15.8327 3.63712 15.0976 2.90199C14.3625 2.16686 13.4897 1.58372 12.5293 1.18587C11.5688 0.788023 10.5393 0.583252 9.49967 0.583252ZM12.8247 11.8249L8.70801 9.29159V4.54159H9.89551V8.65825L13.458 10.7958L12.8247 11.8249Z" fill="white" fill-opacity="0.5"/>
</g>
<defs>
<clipPath id="clip0_248_643">
<rect width="18" height="18" fill="white"/>
</clipPath>
</defs>
</svg>
